<?xml version="1.0" standalone="no"?>
<!DOCTYPE svg PUBLIC "-//W3C//DTD SVG 20010904//EN"
 "http://www.w3.org/TR/2001/REC-SVG-20010904/DTD/svg10.dtd">
<svg version="1.0" xmlns="http://www.w3.org/2000/svg"
 width="115.000000pt" height="143.000000pt" viewBox="0 0 115.000000 143.000000"
 preserveAspectRatio="xMidYMid meet">

<g transform="translate(0.000000,143.000000) scale(0.100000,-0.100000)"
fill="#000000" stroke="none">
<path d="M381 1366 c-17 -13 -51 -27 -74 -30 -70 -11 -147 -56 -188 -110 -59
-78 -72 -129 -77 -313 l-4 -163 45 0 44 0 5 148 c4 124 9 155 28 200 39 90
128 149 205 137 85 -13 117 -10 136 14 34 42 24 103 -22 126 -39 21 -60 19
-98 -9z"/>
<path d="M705 1378 c-32 -17 -45 -39 -45 -75 0 -64 62 -100 123 -72 38 17 102
-5 151 -55 63 -63 76 -111 76 -283 l0 -143 51 0 51 0 -5 158 c-5 172 -17 226
-66 304 -34 54 -82 87 -161 113 -30 10 -68 29 -83 41 -31 26 -60 30 -92 12z"/>
<path d="M401 746 c-7 -8 -11 -25 -9 -38 2 -18 9 -23 32 -23 36 0 56 27 40 53
-14 22 -48 27 -63 8z"/>
<path d="M572 748 c-29 -29 -2 -72 40 -66 42 6 32 78 -11 78 -9 0 -22 -5 -29
-12z"/>
<path d="M746 744 c-19 -18 -19 -20 -6 -45 6 -11 21 -19 35 -19 20 0 45 24 45
44 0 10 -32 36 -45 36 -7 0 -21 -7 -29 -16z"/>
<path d="M42 548 c6 -191 26 -238 143 -327 6 -4 21 -55 34 -114 l24 -106 91
83 91 83 180 6 c253 8 363 40 438 128 54 63 67 112 67 261 l0 128 -60 0 -60 0
0 -127 c0 -146 -14 -193 -71 -236 -77 -58 -103 -62 -369 -62 l-245 0 -53 29
c-38 21 -61 44 -80 75 -25 43 -27 56 -30 184 l-4 137 -50 0 -50 0 4 -142z"/>
</g>
</svg>
